<svg width="24" height="24" viewBox="0 0 24 24" fill="none" xmlns="http://www.w3.org/2000/svg">
<path fill-rule="evenodd" clip-rule="evenodd" d="M0 9C0 10.5545 0.498805 12.0055 1.36191 13.2333L0.494498 16.2693C0.278969 17.0236 0.976393 17.721 1.73074 17.5055L5.58545 16.4042C6.06733 16.5799 6.57016 16.7196 7.08969 16.8194C7.08972 16.8195 7.08966 16.8194 7.08969 16.8194C7.70526 16.9377 8.34435 17.0001 8.99972 17.0001C9.1675 17.0001 9.33421 16.996 9.49973 16.9879C9.49954 16.9879 9.49991 16.9879 9.49973 16.9879C14.2381 16.7577 18 13.2694 18 9C18 4.58172 13.9706 1 9 1C4.02944 1 0 4.58172 0 9ZM3.28496 13.7828C3.45089 13.202 3.34547 12.5773 2.99811 12.0832C2.35542 11.1689 2 10.1153 2 9C2 5.90124 4.90604 3 9 3C13.094 3 16 5.90124 16 9C16 12.0988 13.094 15 9 15C8.02549 15 7.10445 14.8293 6.27081 14.5253C5.87419 14.3806 5.44195 14.3651 5.03601 14.4811L2.91204 15.088L3.28496 13.7828Z" fill="black"/>
<path d="M19.5337 6.08789C19.8167 6.94292 19.9783 7.85289 19.9977 8.80484C21.2586 9.92076 21.9997 11.4352 21.9997 13.0001C21.9997 14.1154 21.6443 15.169 21.0016 16.0832C20.6543 16.5774 20.5488 17.2021 20.7148 17.7828L21.0877 19.088L18.9637 18.4812C18.5578 18.3652 18.1255 18.3806 17.7289 18.5253C16.8953 18.8294 15.9742 19.0001 14.9997 19.0001C14.0209 19.0001 13.1101 18.8342 12.2906 18.5395C11.2558 18.8357 10.1641 18.9956 9.0465 19C10.6331 20.2448 12.7172 21.0001 14.9997 21.0001C16.2083 21.0001 17.3613 20.7883 18.4143 20.4042L22.269 21.5056C23.0233 21.7211 23.7208 21.0237 23.5052 20.2693L22.6378 17.2334C23.5009 16.0055 23.9997 14.5546 23.9997 13.0001C23.9997 10.0514 22.2051 7.47537 19.5337 6.08789Z" fill="black"/>
</svg>
