<svg width="24" height="24" viewBox="0 0 24 24" fill="none" xmlns="http://www.w3.org/2000/svg">
<g clip-path="url(#clip0_27_1424)">
<path d="M9.00003 17C9.15535 17 9.30975 16.9965 9.46314 16.9896C9.47544 16.989 9.48774 16.9885 9.50003 16.9879C14.238 16.7572 18 13.2691 18 9C18 4.58172 13.9706 1 9 1C4.02944 1 0 4.58172 0 9C0 10.5545 0.498805 12.0055 1.36191 13.2333L0.494498 16.2693C0.278969 17.0236 0.976391 17.721 1.73074 17.5055L5.58545 16.4042C6.06745 16.58 6.5704 16.7197 7.09006 16.8195C7.70563 16.9377 8.34466 17 9.00003 17Z" fill="black"/>
<path d="M24 13C24 10.0514 22.2053 7.47531 19.534 6.08782C19.8363 7.00113 20 7.97712 20 9C20 14.7225 14.8746 18.9773 9.04679 18.9999C10.6334 20.2447 12.7174 21 15 21C16.2086 21 17.3616 20.7882 18.4146 20.4042L22.2693 21.5055C23.0236 21.721 23.721 21.0236 23.5055 20.2693L22.6381 17.2333C23.5012 16.0055 24 14.5545 24 13Z" fill="black"/>
</g>
<defs>
<clipPath id="clip0_27_1424">
<rect width="24" height="24" fill="white"/>
</clipPath>
</defs>
</svg>
