<?xml version="1.0" encoding="utf-8"?>
<!-- Uploaded to: SVG Repo, www.svgrepo.com, Generator: SVG Repo Mixer Tools -->
<svg width="800px" height="800px" viewBox="-3 0 262 262" xmlns="http://www.w3.org/2000/svg" preserveAspectRatio="xMidYMid">
  <path d="M255.878 133.451c0-10.734-.871-18.567-2.756-26.69H130.55v48.448h71.947c-1.45 12.04-9.283 30.172-26.69 42.356l-.244 1.622 38.755 30.023 2.685.268c24.659-22.774 38.875-56.282 38.875-96.027" fill="#4285F4"/>
  <path d="M130.55 261.1c35.248 0 64.839-11.605 86.453-31.622l-41.196-31.913c-11.024 7.688-25.82 13.055-45.257 13.055-34.523 0-63.824-22.773-74.269-54.25l-1.531.13-40.298 31.187-.527 1.465C35.393 231.798 79.49 261.1 130.55 261.1" fill="#34A853"/>
  <path d="M56.281 156.37c-2.756-8.123-4.351-16.827-4.351-25.82 0-8.994 1.595-17.697 4.206-25.82l-.073-1.73L15.26 71.312l-1.335.635C5.077 89.644 0 109.517 0 130.55s5.077 40.905 13.925 58.602l42.356-32.782" fill="#FBBC05"/>
  <path d="M130.55 50.479c24.514 0 41.05 10.589 50.479 19.438l36.844-35.974C195.245 12.91 165.798 0 130.55 0 79.49 0 35.393 29.301 13.925 71.947l42.211 32.783c10.59-31.477 39.891-54.251 74.414-54.251" fill="#EB4335"/>
</svg>
<svg xmlns="http://www.w3.org/2000/svg" width="18" height="18" viewBox="0 0 48 48">
  <path fill="#EA4335" d="M24 9.5c3.3 0 6.3 1.2 8.6 3.2l6.4-6.4C34.8 2.4 29.7 0.5 24 0.5 14.7 0.5 6.6 5.8 2.7 13.4l7.8 6.1C12.5 13.9 17.8 9.5 24 9.5z"/>
  <path fill="#4285F4" d="M46.5 24.5c0-1.6-.2-3.1-.6-4.5H24v9h12.7c-.6 3.1-2.4 5.7-5.1 7.5l7.9 6.1c4.6-4.2 7-10.3 7-18.1z"/>
  <path fill="#34A853" d="M10.5 27.5A14.5 14.5 0 0 1 9 21.5c0-2.1.5-4.1 1.4-5.9l-7.8-6.1C0.9 12 0 16.6 0 21.5c0 4.9.9 9.5 2.6 12.9l7.9-6.9z"/>
  <path fill="#FBBC05" d="M24 43.5c5.7 0 10.6-1.9 14.1-5.1l-7.9-6.1c-2.2 1.5-5 2.4-8.2 2.4-6.2 0-11.5-4.4-13.5-10.4l-7.8 6.1C6.6 42.2 14.7 47.5 24 47.5z"/>
</svg>

