<svg width="24" height="24" viewBox="0 0 24 24" fill="none" xmlns="http://www.w3.org/2000/svg">
<path d="M10.9999 13.7319L11 13.732V21.8222L3.99944 17.7774C3.38095 17.4201 3 16.76 3 16.0457V9.11245L10.9999 13.7319Z" fill="black"/>
<path d="M3.26646 6.95682L12 12L15.5016 9.978L6.50056 4.77742L3.99944 6.2225C3.68941 6.40164 3.43906 6.65684 3.26646 6.95682Z" fill="black"/>
<path d="M17.501 8.82342L20.7335 6.95682C20.5609 6.65684 20.3106 6.40164 20.0006 6.2225L13.0006 2.17806C12.3815 1.82037 11.6185 1.82037 10.9994 2.17806L8.49945 3.6225L17.501 8.82342Z" fill="black"/>
<path d="M21 9.11245L13.0001 13.7319L13 13.732V21.8222L20.0006 17.7774C20.619 17.4201 21 16.76 21 16.0457V9.11245Z" fill="black"/>
</svg>
