<svg xmlns="http://www.w3.org/2000/svg" xmlns:xlink="http://www.w3.org/1999/xlink" width="500" zoomAndPan="magnify" viewBox="0 0 375 374.999991" height="500" preserveAspectRatio="xMidYMid meet" version="1.0"><defs><g/><clipPath id="016bada7d3"><rect x="0" width="136" y="0" height="284"/></clipPath><clipPath id="4404cd4c5b"><rect x="0" width="129" y="0" height="284"/></clipPath></defs><rect x="-37.5" width="450" fill="#ffffff" y="-37.499999" height="449.999989" fill-opacity="1"/><rect x="-37.5" width="450" fill="#faf8f3" y="-37.499999" height="449.999989" fill-opacity="1"/><g transform="matrix(1, 0, 0, 1, 139, 42)"><g clip-path="url(#016bada7d3)"><g fill="#fdbb42" fill-opacity="1"><g transform="translate(1.674899, 205.678224)"><g><path d="M 15.15625 -2.078125 C 18.757812 -2.078125 21.835938 -3.359375 24.390625 -5.921875 C 26.953125 -8.484375 28.304688 -11.5625 28.453125 -15.15625 L 28.453125 -131.453125 C 28.453125 -134.773438 27.132812 -137.578125 24.5 -139.859375 C 21.875 -142.140625 18.757812 -143.28125 15.15625 -143.28125 L 12.671875 -143.28125 L 12.453125 -145.359375 L 54.609375 -145.359375 C 58.898438 -145.359375 63.570312 -145.769531 68.625 -146.59375 C 73.675781 -147.425781 77.242188 -148.257812 79.328125 -149.09375 L 79.328125 -122.9375 L 77.25 -122.9375 L 77.25 -126.671875 C 77.25 -129.992188 76.101562 -132.832031 73.8125 -135.1875 C 71.53125 -137.539062 68.800781 -138.785156 65.625 -138.921875 L 41.953125 -138.921875 L 41.953125 -74.75 L 81.40625 -74.75 C 84.164062 -74.894531 86.515625 -75.9375 88.453125 -77.875 C 90.398438 -79.8125 91.375 -82.234375 91.375 -85.140625 L 91.375 -88.046875 L 93.4375 -88.046875 L 93.4375 -55.234375 L 91.375 -55.234375 L 91.375 -58.34375 C 91.375 -61.113281 90.4375 -63.46875 88.5625 -65.40625 C 86.695312 -67.34375 84.378906 -68.382812 81.609375 -68.53125 L 41.953125 -68.53125 L 41.953125 -6.4375 L 86.171875 -6.4375 C 96.421875 -6.4375 104.242188 -8.71875 109.640625 -13.28125 C 115.035156 -17.851562 119.535156 -24.640625 123.140625 -33.640625 L 125.21875 -33.640625 L 113.171875 0 L 12.453125 0 L 12.453125 -2.078125 Z M 15.15625 -2.078125 "/></g></g></g></g></g><g transform="matrix(1, 0, 0, 1, 92, 42)"><g clip-path="url(#4404cd4c5b)"><g fill="#faf8f3" fill-opacity="1"><g transform="translate(2.903418, 205.678224)"><g><path d="M 28.113281 -52.632812 C 21.5 -43.988281 18.195312 -34.679688 18.195312 -24.710938 C 18.195312 -13.238281 23.019531 -4.324219 32.671875 2.027344 C 38.34375 5.851562 44.789062 7.761719 52.015625 7.761719 C 59.398438 7.761719 65.75 6.335938 71.074219 3.492188 C 80.945312 -1.628906 86.5 -10.273438 87.726562 -22.441406 L 87.738281 -22.527344 L 87.75 -22.617188 C 87.859375 -23.386719 87.914062 -24.152344 87.914062 -24.917969 C 87.914062 -29.394531 86.632812 -34.316406 84.074219 -39.6875 C 81.523438 -45.035156 77.332031 -49.992188 71.492188 -54.5625 L 34.101562 -84.058594 C 24.847656 -91.273438 20.21875 -100.632812 20.21875 -112.132812 C 20.21875 -123.359375 23.855469 -132.882812 31.125 -140.695312 C 38.480469 -148.59375 48.316406 -152.546875 60.632812 -152.546875 C 66.472656 -152.546875 72.789062 -151.820312 79.589844 -150.375 L 78.699219 -146.1875 L 78.699219 -150.46875 L 91.21875 -150.46875 L 91.773438 -116.363281 L 81.148438 -116.363281 L 81.0625 -120.554688 C 80.949219 -125.886719 79.085938 -130.039062 75.460938 -133.011719 C 71.613281 -136.171875 66.707031 -137.75 60.738281 -137.75 C 54.917969 -137.75 50.070312 -135.839844 46.199219 -132.027344 C 42.34375 -128.226562 40.414062 -123.292969 40.414062 -117.21875 C 40.414062 -111.328125 42.921875 -106.390625 47.933594 -102.402344 L 86.335938 -72.09375 C 102.652344 -59.191406 110.808594 -43.535156 110.808594 -25.125 C 110.808594 -11.121094 105.285156 0.875 94.238281 10.859375 C 84.703125 19.488281 72.117188 23.800781 56.480469 23.800781 C 46.972656 23.800781 38.460938 22 30.957031 18.398438 C 16.628906 11.691406 8.019531 0.273438 5.128906 -15.855469 C 4.667969 -18.308594 4.4375 -21.363281 4.4375 -25.023438 C 4.4375 -28.871094 5.480469 -33.957031 7.558594 -40.273438 C 9.695312 -46.75 13.742188 -53.195312 19.707031 -59.605469 L 22.375 -62.476562 L 30.695312 -56.007812 Z M 21.308594 -57.835938 L 24.710938 -55.234375 L 22.082031 -51.855469 L 20.210938 -53.308594 L 22.839844 -56.6875 L 25.976562 -53.769531 C 20.867188 -48.277344 17.4375 -42.882812 15.695312 -37.59375 C 13.902344 -32.144531 13.003906 -27.957031 13.003906 -25.023438 C 13.003906 -21.894531 13.191406 -19.34375 13.558594 -17.367188 C 15.929688 -4.148438 22.964844 5.199219 34.664062 10.675781 C 41 13.714844 48.269531 15.234375 56.480469 15.234375 C 69.917969 15.234375 80.585938 11.660156 88.492188 4.503906 C 97.660156 -3.78125 102.242188 -13.65625 102.242188 -25.125 C 102.242188 -40.769531 95.171875 -54.183594 81.03125 -65.371094 L 42.601562 -95.695312 C 35.433594 -101.398438 31.847656 -108.574219 31.847656 -117.21875 C 31.847656 -125.679688 34.625 -132.652344 40.183594 -138.128906 C 45.726562 -143.585938 52.578125 -146.316406 60.738281 -146.316406 C 68.75 -146.316406 75.46875 -144.089844 80.898438 -139.632812 C 86.550781 -134.992188 89.460938 -128.691406 89.625 -120.734375 L 85.34375 -120.644531 L 85.34375 -124.929688 L 87.421875 -124.929688 L 87.421875 -120.644531 L 83.136719 -120.574219 L 82.722656 -146.117188 L 87.003906 -146.1875 L 87.003906 -141.902344 L 78.25 -141.902344 L 77.808594 -141.996094 C 71.59375 -143.316406 65.871094 -143.980469 60.632812 -143.980469 C 50.800781 -143.980469 43.058594 -140.9375 37.398438 -134.859375 C 31.65625 -128.6875 28.785156 -121.113281 28.785156 -112.132812 C 28.785156 -103.421875 32.328125 -96.304688 39.40625 -90.785156 L 76.769531 -61.308594 C 83.667969 -55.910156 88.679688 -49.933594 91.804688 -43.375 C 94.921875 -36.835938 96.480469 -30.6875 96.480469 -24.917969 C 96.480469 -23.746094 96.394531 -22.574219 96.230469 -21.40625 L 91.988281 -22.011719 L 96.25 -21.582031 C 94.710938 -6.339844 87.664062 4.535156 75.113281 11.042969 C 68.53125 14.566406 60.832031 16.328125 52.015625 16.328125 C 43.046875 16.328125 35.027344 13.945312 27.960938 9.183594 C 15.738281 1.140625 9.628906 -10.160156 9.628906 -24.710938 C 9.628906 -36.613281 13.523438 -47.65625 21.308594 -57.835938 Z M 21.308594 -57.835938 "/></g></g></g><g fill="#fdbb42" fill-opacity="1"><g transform="translate(2.903418, 205.678224)"><g><path d="M 24.71875 -55.234375 C 17.507812 -45.816406 13.90625 -35.644531 13.90625 -24.71875 C 13.90625 -11.695312 19.375 -1.585938 30.3125 5.609375 C 36.6875 9.898438 43.921875 12.046875 52.015625 12.046875 C 60.117188 12.046875 67.144531 10.453125 73.09375 7.265625 C 84.3125 1.453125 90.609375 -8.304688 91.984375 -22.015625 C 92.128906 -22.984375 92.203125 -23.953125 92.203125 -24.921875 C 92.203125 -30.046875 90.78125 -35.582031 87.9375 -41.53125 C 85.101562 -47.476562 80.503906 -52.945312 74.140625 -57.9375 L 36.75 -87.421875 C 28.582031 -93.785156 24.5 -102.019531 24.5 -112.125 C 24.5 -122.238281 27.75 -130.789062 34.25 -137.78125 C 40.757812 -144.769531 49.554688 -148.265625 60.640625 -148.265625 C 66.171875 -148.265625 72.191406 -147.570312 78.703125 -146.1875 L 87.015625 -146.1875 L 87.421875 -120.640625 L 85.34375 -120.640625 C 85.207031 -127.285156 82.816406 -132.507812 78.171875 -136.3125 C 73.535156 -140.125 67.722656 -142.03125 60.734375 -142.03125 C 53.742188 -142.03125 47.894531 -139.710938 43.1875 -135.078125 C 38.476562 -130.441406 36.125 -124.488281 36.125 -117.21875 C 36.125 -109.945312 39.171875 -103.890625 45.265625 -99.046875 L 83.6875 -68.734375 C 98.914062 -56.691406 106.53125 -42.15625 106.53125 -25.125 C 106.53125 -12.382812 101.476562 -1.445312 91.375 7.6875 C 82.644531 15.570312 71.015625 19.515625 56.484375 19.515625 C 47.617188 19.515625 39.726562 17.851562 32.8125 14.53125 C 19.800781 8.445312 11.976562 -1.929688 9.34375 -16.609375 C 8.925781 -18.828125 8.71875 -21.628906 8.71875 -25.015625 C 8.71875 -28.410156 9.6875 -33.050781 11.625 -38.9375 C 13.5625 -44.820312 17.300781 -50.738281 22.84375 -56.6875 Z M 24.71875 -55.234375 "/></g></g></g></g></g></svg>