<?xml version="1.0" encoding="UTF-8"?>
<svg version="1.1" xmlns="http://www.w3.org/2000/svg" width="512" height="512">
<path d="M0 0 C1.0165567 0.00031723 1.0165567 0.00031723 2.0536499 0.00064087 C36.3171966 0.10698053 63.71566205 15.02701465 88.9375 37.375 C92.83466922 35.74341002 95.69420028 33.08081055 98.8125 30.3125 C114.46872389 16.80120765 132.74979109 7.02988359 152.9375 2.375 C153.73760498 2.18881104 154.53770996 2.00262207 155.36206055 1.81079102 C163.26522662 0.16579143 171.07640545 0.01601632 179.125 0.0625 C179.81203003 0.06498749 180.49906006 0.06747498 181.20690918 0.07003784 C214.21432218 0.25499234 242.6304518 13.19846862 266.125 36.125 C292.81457341 63.24951461 304.19895914 99.50955729 304.11816406 136.91479492 C303.71898247 182.21846434 288.51935558 220.63222388 258.046875 254.046875 C256.18074433 256.10653033 254.36680212 258.19888895 252.5625 260.3125 C246.24168896 267.5572347 239.33598356 274.33226301 232.0234375 280.5703125 C229.48653426 282.76516137 227.02928374 285.0391895 224.5625 287.3125 C220.41672447 291.08963612 216.18276755 294.66933243 211.7734375 298.1328125 C208.95612654 300.36027324 206.17649501 302.6284017 203.39916992 304.90527344 C195.07376968 311.72143757 186.59928131 318.31721809 178.01367188 324.80175781 C176.0175029 326.31437692 174.0312371 327.83912795 172.046875 329.3671875 C163.15605041 336.17607639 153.97159496 342.44483152 144.625 348.609375 C138.5452701 352.62148726 132.52069541 356.71252293 126.5 360.8125 C125.46077393 361.51705322 124.42154785 362.22160645 123.35083008 362.94750977 C118.07888872 366.52696021 112.83675516 370.14096102 107.63671875 373.82421875 C106.63503662 374.52683838 105.63335449 375.22945801 104.60131836 375.95336914 C102.70144087 377.28782017 100.80983884 378.63415542 98.92797852 379.99389648 C98.08033936 380.58630127 97.2327002 381.17870605 96.359375 381.7890625 C95.62299805 382.3145166 94.88662109 382.8399707 94.12792969 383.38134766 C91.27265857 384.67659436 89.88539903 384.332714 86.9375 383.375 C85.11425781 382.4296875 85.11425781 382.4296875 83.390625 381.25 C82.39119873 380.57505493 82.39119873 380.57505493 81.37158203 379.88647461 C80.65083496 379.38768799 79.93008789 378.88890137 79.1875 378.375 C78.40874512 377.84592041 77.62999023 377.31684082 76.82763672 376.77172852 C75.11088409 375.6041027 73.39664497 374.43277512 71.68457031 373.25830078 C68.85530505 371.31864986 66.01854133 369.39043025 63.1796875 367.46484375 C58.99851803 364.6283465 54.82223057 361.78483851 50.6484375 358.9375 C46.06400152 355.81140459 41.46275894 352.71146071 36.8515625 349.625 C22.49719657 340.00240058 8.54586704 330.04158474 -5.0625 319.375 C-6.37692124 318.35719036 -7.69197987 317.34020308 -9.0078125 316.32421875 C-15.28516112 311.45897851 -21.41622496 306.44843732 -27.45117188 301.28564453 C-30.60067289 298.59391983 -33.79698094 295.98671165 -37.0625 293.4375 C-42.2529184 289.3256101 -47.0614984 284.84355718 -51.89453125 280.32421875 C-54.64168229 277.75552925 -57.43622589 275.24573371 -60.25 272.75 C-68.02434791 265.77075585 -75.37677963 258.40585534 -82.0625 250.375 C-82.48756836 249.87436035 -82.91263672 249.3737207 -83.35058594 248.85791016 C-91.70173488 238.98498356 -98.69178814 228.62267391 -105.0625 217.375 C-105.40651855 216.77365234 -105.75053711 216.17230469 -106.10498047 215.55273438 C-125.82329388 180.53834066 -129.65905958 133.19609612 -119.41943359 94.68261719 C-109.70603232 60.75213582 -88.30054812 31.93588921 -57.73486328 14.12060547 C-51.21626091 10.50978498 -44.42299064 7.89327813 -37.375 5.5 C-36.11115479 5.07025879 -36.11115479 5.07025879 -34.82177734 4.63183594 C-23.3089704 0.92579582 -12.05418912 -0.01565092 0 0 Z M-58.0625 70.375 C-78.11102939 92.86229205 -81.1179197 120.41350164 -80.0625 149.375 C-78.04253514 179.55249435 -64.37832437 204.91143694 -43.796875 226.48828125 C-41.65092202 228.75379447 -39.62014303 231.04234067 -37.625 233.4375 C-33.06915639 238.70449968 -27.8122566 243.28027163 -22.65087891 247.93945312 C-21.22370673 249.2293044 -19.80467997 250.52815472 -18.38671875 251.828125 C-12.455529 257.23903495 -6.3049322 262.32909957 -0.0625 267.375 C1.16870087 268.38582767 2.39912618 269.39760049 3.62890625 270.41015625 C11.48359003 276.86239184 19.46101894 283.09588378 27.62109375 289.15625 C32.50998037 292.78962045 37.34771451 296.48912313 42.1875 300.1875 C50.00680664 306.15636565 57.84215576 312.10297892 65.7355957 317.97363281 C69.72707258 320.94481308 73.68062297 323.94716427 77.5703125 327.05078125 C78.29822998 327.62280273 79.02614746 328.19482422 79.77612305 328.78417969 C81.13836193 329.85723793 82.48961873 330.94444325 83.82739258 332.04785156 C85.81711928 333.66864429 85.81711928 333.66864429 88.9375 335.375 C93.91848937 334.7593721 98.23082518 330.20230345 102.0625 327.125 C108.43502475 322.08334652 114.87195065 317.1625918 121.4375 312.375 C128.61107414 307.13285781 135.6619464 301.75494694 142.65576172 296.27563477 C146.7538154 293.06635384 150.87749473 289.90748365 155.0625 286.8125 C161.91187559 281.71109266 168.50001628 276.29535501 175.10107422 270.87939453 C176.7000185 269.56954414 178.30460394 268.2665859 179.91015625 266.96484375 C194.1482374 255.50123935 194.1482374 255.50123935 207.38671875 242.92578125 C209.05540059 241.25709941 210.81564932 239.76454812 212.625 238.25 C239.09884398 215.23812024 257.22135804 184.57597063 259.9375 149.375 C261.0580911 128.53141272 260.24871647 109.37859385 250.9375 90.375 C250.27621094 88.99441406 250.27621094 88.99441406 249.6015625 87.5859375 C239.18708727 67.1597568 221.32816258 52.96910193 199.79003906 45.94580078 C180.3594516 39.95888546 160.74302238 43.98191562 142.94921875 52.8671875 C131.23528425 59.21793279 121.7663532 68.81838513 113 78.75 C111.96746094 79.91015625 111.96746094 79.91015625 110.9140625 81.09375 C109.69091777 82.50544274 108.49244117 83.93946485 107.3359375 85.40625 C104.13406637 89.44711409 101.14030997 92.29789331 95.9375 93.375 C88.55633046 94.18947388 81.95037051 94.07688826 75.9375 89.375 C73.05793353 86.53999162 70.49301514 83.50187015 67.9375 80.375 C51.90656779 61.42254277 32.78847835 45.56576088 6.9375 43.375 C-18.76838093 42.02379344 -40.51387317 51.94800739 -58.0625 70.375 Z " fill="#000000" transform="translate(166.0625,63.625)"/>
</svg>
